<svg width="540" height="140" viewBox="0 0 540 140" fill="none" xmlns="http://www.w3.org/2000/svg">
  <defs>
    <linearGradient id="g2" x1="18" y1="18" x2="122" y2="122" gradientUnits="userSpaceOnUse">
      <stop stop-color="#7F2CFF"/>
      <stop offset="0.55" stop-color="#9E6AFF"/>
      <stop offset="1" stop-color="#5FC3FF"/>
    </linearGradient>
    <linearGradient id="text2" x1="160" y1="34" x2="430" y2="104" gradientUnits="userSpaceOnUse">
      <stop stop-color="#F7F3FF"/>
      <stop offset="1" stop-color="#CEC4FF"/>
    </linearGradient>
  </defs>
  <g transform="translate(20 20)">
    <circle cx="50" cy="50" r="5.5" fill="url(#g2)"/>
    <rect x="47.6" y="8" width="4.8" height="20" rx="2.4" fill="url(#g2)"/>
    <rect x="47.6" y="72" width="4.8" height="20" rx="2.4" fill="url(#g2)"/>
    <rect x="8" y="47.6" width="20" height="4.8" rx="2.4" fill="url(#g2)"/>
    <rect x="72" y="47.6" width="20" height="4.8" rx="2.4" fill="url(#g2)"/>
    <rect x="19.5" y="19.5" width="4.8" height="20" rx="2.4" transform="rotate(-45 19.5 19.5)" fill="url(#g2)"/>
    <rect x="80.5" y="80.5" width="4.8" height="20" rx="2.4" transform="rotate(-45 80.5 80.5)" fill="url(#g2)"/>
    <rect x="80.5" y="19.5" width="4.8" height="20" rx="2.4" transform="rotate(45 80.5 19.5)" fill="url(#g2)"/>
    <rect x="19.5" y="80.5" width="4.8" height="20" rx="2.4" transform="rotate(45 19.5 80.5)" fill="url(#g2)"/>
    <circle cx="50" cy="14" r="3" fill="#DCC6FF"/>
    <circle cx="50" cy="86" r="3" fill="#DCC6FF"/>
    <circle cx="14" cy="50" r="3" fill="#DCC6FF"/>
    <circle cx="86" cy="50" r="3" fill="#DCC6FF"/>
  </g>
  <text x="150" y="86" fill="url(#text2)" font-size="52" font-family="Inter, Segoe UI, Arial, sans-serif" font-weight="700" letter-spacing="0.5">Luma AI</text>
</svg>
